<svg width="102" height="102" viewBox="0 0 102 102" fill="none" xmlns="http://www.w3.org/2000/svg">
<path d="M51.1951 2.01921L51 1.98041L50.8049 2.01921L32.4361 5.673L32.241 5.7118L32.0756 5.82231L16.5033 16.2274L16.3379 16.3379L16.2274 16.5033L5.82231 32.0756L5.7118 32.241L5.673 32.4361L2.01921 50.8049L1.98041 51L2.01921 51.1951L5.673 69.5639L5.7118 69.759L5.82231 69.9244L16.2274 85.4967L16.3379 85.6621L16.5033 85.7726L32.0756 96.1777L32.241 96.2882L32.4361 96.327L50.8049 99.9808L51 100.02L51.1951 99.9808L69.5639 96.327L69.759 96.2882L69.9244 96.1777L85.4967 85.7726L85.6621 85.6621L85.7726 85.4967L96.1777 69.9244L96.2882 69.759L96.327 69.5639L99.9808 51.1951L100.02 51L99.9808 50.8049L96.327 32.4361L96.2882 32.241L96.1777 32.0756L85.7726 16.5033L85.6621 16.3379L85.4967 16.2274L69.9244 5.82231L69.759 5.7118L69.5639 5.673L51.1951 2.01921Z" stroke="black" stroke-width="2"/>
<circle cx="51" cy="51" r="15" stroke="black" stroke-width="2"/>
</svg>
