<svg width="117" height="105" viewBox="0 0 117 105" fill="none" xmlns="http://www.w3.org/2000/svg">
<path d="M77.3154 54.0996L79.335 39.1455C79.7402 36.1454 77.4074 33.4763 74.38 33.4763H64.5034M77.3154 54.0996H63.3893M77.3154 54.0996L81.2372 56.0617C82.9305 56.9088 84 58.6398 84 60.5333V62.8806C84 64.0497 83.5903 65.1819 82.8421 66.0803L79.9288 69.5784C78.9788 70.719 77.5712 71.3786 76.0867 71.3786H74.5302M6.57047 54.0996L4.94052 39.0134C4.62106 36.0566 6.9376 33.4763 9.91159 33.4763H20.4966M6.57047 54.0996H21.6107M6.57047 54.0996L3.60746 56.0762C2.31478 56.9385 1.49649 58.3528 1.39319 59.9032L1.15076 63.542C1.05495 64.98 1.58431 66.3894 2.60309 67.4088L5.10582 69.9131C6.04359 70.8514 7.31582 71.3786 8.64243 71.3786H9.91275M20.4966 33.4763L21.6107 54.0996M20.4966 33.4763H42.7785M21.6107 54.0996H42.7785M42.7785 54.0996V33.4763M42.7785 54.0996H63.3893M42.7785 33.4763H64.5034M63.3893 54.0996L64.5034 33.4763M9.91275 71.3786L12.4425 87.5594C12.7412 89.4704 14.1153 91.0377 15.9708 91.5837L21.7104 93.2729C22.1688 93.4078 22.6442 93.4763 23.122 93.4763H24.0727M9.91275 71.3786H22.7248M24.0727 93.4763H36.3278H42.7785M24.0727 93.4763L22.7248 71.3786M22.7248 71.3786H42.7785M42.7785 71.3786V93.4763M42.7785 71.3786H60.604M42.7785 93.4763H49.4631M60.604 71.3786L59.4899 87.5428M60.604 71.3786H74.5302M72.302 87.5428L74.5302 71.3786" stroke="black" stroke-width="2" stroke-linecap="round"/>
<path d="M115.226 32.9442L109.807 38.6447L105.514 44.8731L101.551 51.8735C99.9394 54.7207 98.6968 57.7615 97.8534 60.9227V60.9227L96.5832 65.6837L94.5705 74.0796L92.5579 82.4756L90.4359 89.4234C89.4687 92.59 87.7204 95.4624 85.3519 97.7761V97.7761C82.7426 100.325 79.4778 102.101 75.9201 102.907L75.8296 102.927L75.5639 102.987C72.0895 103.774 68.4915 103.847 64.9881 103.202V103.202V103.202C61.5055 102.56 58.2436 101.043 55.5097 98.792L55.4168 98.7155L51.6599 95.6227C51.3259 95.3476 51.0394 95.0195 50.812 94.6513L49.909 93.1897C48.6804 91.2011 50.1119 88.6361 52.4494 88.6376V88.6376L57.8042 88.6411L68.5138 88.648L79.2233 88.6549L89.9329 88.6618" stroke="black" stroke-width="2" stroke-linecap="round"/>
<path d="M36.0116 21.2033L35.0239 18.7646C34.1581 16.6272 34.342 14.2078 35.5209 12.2257V12.2257C36.4419 10.6772 36.7643 8.84508 36.4271 7.0752L35.4816 2.1123" stroke="black" stroke-width="2" stroke-linecap="round"/>
<path d="M48.6005 20.091L47.6128 17.6523C46.7471 15.5149 46.931 13.0955 48.1099 11.1134V11.1134C49.0309 9.56487 49.3532 7.73278 49.016 5.9629L48.0705 1" stroke="black" stroke-width="2" stroke-linecap="round"/>
</svg>
