<svg width="116" height="84" viewBox="0 0 116 84" fill="none" xmlns="http://www.w3.org/2000/svg">
<path d="M42.944 67.8735C43.0741 67.711 43.1993 67.5548 43.3156 67.4094C43.6885 66.9436 44.4026 66.9604 44.7527 67.4437C45.1334 67.9678 44.9494 69.012 44.3453 69.7723C44.3361 69.7837 44.3272 69.7948 44.3185 69.8066C44.2478 69.9025 43.8926 70.4199 43.3406 71.8129C42.7644 73.2074 42.1967 74.4648 42.0824 74.7167C42.0683 74.7478 42.0545 74.7782 42.0397 74.809C41.6272 75.6664 40.8617 76.0844 40.3202 75.7393C39.7716 75.3901 39.6487 74.384 40.0435 73.4978C40.0482 73.4875 40.0526 73.4777 40.0573 73.4673C40.1131 73.3433 40.5121 72.4512 41.1279 70.926C41.8182 69.28 42.942 67.8759 42.944 67.8735ZM42.944 67.8735V67.8735ZM31.004 56.1243C31.1545 55.9818 31.2994 55.8447 31.4341 55.7172C31.936 55.2422 32.704 55.1896 33.2658 55.5918C33.7943 55.9695 33.652 56.8225 32.9515 57.4934C32.942 57.5025 32.9335 57.5105 32.9239 57.5195C32.7584 57.6741 31.0675 59.2404 29.2437 60.3939C27.3388 61.5853 25.4508 62.8261 25.4207 62.8459L25.4189 62.8471C24.5989 63.3855 23.5964 63.4094 23.1892 62.8994C22.7842 62.3914 23.1175 61.5382 23.9291 60.9979C23.9365 60.993 23.9428 60.9889 23.9502 60.984C24.1105 60.8786 26.182 59.5171 27.9683 58.3947C29.8202 57.2417 30.9966 56.1312 31.004 56.1243ZM31.004 56.1243V56.1243ZM63.4816 68.8655C63.4816 68.8655 62.4895 68.9441 61.0899 68.9453C56.3323 68.9441 51.5252 68.0767 47.1822 66.0484C41.6514 63.446 36.7213 58.2365 34.4323 52.6349C33.8363 51.1613 33.0483 49.7262 32.4493 48.0386C31.5461 45.4799 31.1775 42.7445 31.1775 40.0433C31.1775 38.3185 31.3272 36.606 31.5903 34.9586C32.3795 30.024 34.6196 25.1439 38.7055 21.8118C40.7131 20.178 43.6385 18.4222 43.7317 18.3663C43.7347 18.3646 43.7355 18.3641 43.7385 18.3623C44.579 17.8597 45.1448 17.4614 45.099 17.4638C45.053 17.4662 43.5884 17.138 43.2031 16.8003C42.8213 16.4648 41.9674 15.6152 41.298 14.9054C41.2873 14.8941 41.2769 14.883 41.2666 14.8714C41.2098 14.8074 40.9872 14.5482 40.4344 13.8177C39.1687 12.1441 38.545 11.1265 38.5021 11.056C38.5004 11.0532 38.4988 11.0507 38.4971 11.0478C37.994 10.2115 38.0461 9.2628 38.6131 8.93754C39.1805 8.61236 40.0605 9.02581 40.571 9.8569C40.573 9.86013 40.5739 9.86169 40.5759 9.86493C40.6382 9.96651 42.2024 12.5057 43.8193 14.1512C43.9452 14.2842 44.7975 15.0886 44.901 15.2397C44.9339 15.2878 44.9504 15.3197 44.9504 15.3197M63.4816 68.8655C64.4569 68.7885 65.4511 69.4895 65.701 70.4269C65.7041 70.4385 65.7069 70.4495 65.7099 70.461C65.7567 70.6416 66.1803 72.2551 66.7919 73.8923C67.5442 75.8407 67.7756 76.7602 67.7559 77.9221C67.7559 77.944 67.7571 77.9675 67.7593 77.9922C67.8409 78.9132 68.2413 79.981 69.0434 80.4412C69.5837 80.7511 70.273 80.5013 70.4889 79.917C70.5001 79.887 70.5113 79.8565 70.5227 79.8258C70.5674 79.7049 70.5903 79.5771 70.5903 79.4483C70.5903 79.3829 70.5903 79.2956 70.5903 79.179C70.5903 79.0138 70.6093 78.8493 70.6264 78.6851C70.7934 77.0776 69.7242 74.9381 69.0243 73.0603C68.3639 71.352 68.0717 70.1949 68.0539 70.1237C68.0533 70.1214 68.0528 70.1191 68.0522 70.1167C67.8213 69.1693 68.4026 68.1709 69.3458 67.8963M63.4816 68.8655L69.3458 67.8963M69.3458 67.8963L74.2693 66.0733C75.1492 65.6357 75.7935 65.1425 75.7005 64.977C75.6074 64.8114 76.1622 64.2325 76.9324 63.6902C77.7015 63.1488 79.972 62.0731 80.5006 62.8914C80.5021 62.8937 80.5021 62.8938 80.5036 62.8961C80.5504 62.9697 82.7041 66.3547 84.3775 68.6603C84.7677 69.2317 85.1098 69.7134 85.1646 69.7903C85.1698 69.7976 85.1749 69.8047 85.1801 69.812C85.7452 70.6014 86.2236 71.0196 86.7569 70.6453C87.292 70.2692 87.8341 69.4343 87.4439 68.8879C87.0537 68.341 86.3516 67.331 86.3474 67.3245C86.3432 67.318 86.3367 67.3097 86.3337 67.305C86.3307 67.3003 85.9495 66.5924 85.4866 65.7315L82.1327 61.144C81.6017 60.3221 81.0081 59.81 80.8131 60.0051C80.7577 60.0603 80.7158 60.1002 80.6876 60.1247C80.5973 60.2035 80.814 59.932 80.8888 59.8384C83.0995 57.0454 85.0167 52.9156 85.1397 52.6486C85.144 52.6391 85.1481 52.6301 85.1524 52.6207C85.5551 51.7384 85.8851 51.0165 85.8869 51.0123C85.8881 51.0082 85.8916 50.9987 85.894 50.9899C85.8964 50.981 86.0421 50.1916 86.2172 49.2327C86.2177 49.2298 86.2176 49.2302 86.2181 49.2273C86.235 49.1346 87.3646 42.9199 87.3658 38.9601C87.3552 35.3239 85.1745 29.8247 85.1007 29.6397C85.0984 29.6339 85.0976 29.6319 85.0952 29.626C84.7361 28.7253 84.8229 28.2535 85.2909 28.5771C85.7595 28.9021 86.6666 28.5627 87.3066 27.8234L87.3084 27.8214C87.3355 27.7901 88.5248 26.4217 90.2156 25.0966C91.9118 23.7509 93.4828 23.0562 93.4901 23.053M44.9504 15.3197C44.914 15.2126 45.0465 15.6047 45.2457 16.1925C45.4436 16.7757 46.3138 16.8969 47.1855 16.4661C47.1971 16.4604 47.2087 16.4545 47.2203 16.4487C47.3948 16.3614 48.8642 15.6302 50.3857 14.998C52.7183 14.0294 54.9443 13.6823 57.2196 13.6823C57.2238 13.6823 57.3173 13.6823 57.3214 13.6823C57.3296 13.6823 57.9842 13.5256 57.9895 13.5194C58.2291 13.2414 58.3927 12.6367 58.3875 11.9338L57.6597 5.70481C57.637 4.72913 58.1345 3.7842 58.7651 3.60326C59.3951 3.4229 59.9386 4.07394 59.9726 5.04844L60.7547 11.4714C60.7463 12.4476 60.2207 13.35 59.5866 13.4777C58.9528 13.6042 59.2331 13.7991 60.2094 13.9103L60.2116 13.9106C60.2488 13.9148 63.2074 14.2521 65.5863 14.6828C70.8158 15.649 76.578 18.537 80.3125 22.3014C81.7361 23.7523 83.1305 25.8928 83.3056 26.1647C83.3181 26.1841 83.3303 26.2035 83.343 26.2228C83.8694 27.0178 84.807 27.0818 85.4441 26.3613C85.4485 26.3563 85.4523 26.3519 85.4568 26.3469C85.56 26.2297 86.9834 24.6258 88.7319 23.2445C90.6069 21.7814 92.9157 20.7599 92.9187 20.7586M44.9504 15.3197C44.9486 15.3238 38.9799 9.1305 44.8805 15.1749C44.9637 15.2601 44.9891 15.4323 44.9504 15.3197ZM92.9187 20.7586C93.1126 20.6729 93.2988 20.5906 93.4717 20.5141C94.0362 20.2644 94.6896 20.5842 94.839 21.1832C94.9964 21.8147 94.3889 22.6561 93.4901 23.053M92.9187 20.7586V20.7586ZM93.4901 23.053V23.053ZM60.6345 13.6791L60.6335 13.6781M86.6591 13.6315C86.7398 13.4441 86.8175 13.2638 86.8898 13.0957C87.1724 12.4396 87.8392 12.0343 88.5518 12.0851C89.2028 12.1316 89.4217 12.8955 89.0416 13.7865C89.0377 13.7958 89.0342 13.8039 89.0301 13.8131C88.956 13.9807 88.1372 15.7962 86.8331 17.2332C85.5855 18.5675 84.6818 19.4775 84.5182 19.6416C84.5003 19.6595 84.4826 19.6773 84.4644 19.695C83.7728 20.3666 82.8068 20.5872 82.3033 20.1833C81.7945 19.7751 81.9411 18.8767 82.6288 18.1832C82.6321 18.1798 82.635 18.1769 82.6384 18.1736C82.7182 18.0934 83.8397 16.9646 85.0809 15.6277C86.3726 14.2823 86.6546 13.6419 86.6591 13.6315ZM86.6591 13.6315V13.6315ZM90.5395 41.4867C90.5468 41.4856 93.288 41.0662 95.6217 41.0662C95.6456 41.0662 97.1262 41.1051 97.1501 41.1064C97.8585 41.1463 98.6545 41.1969 99.1977 41.2374C99.2403 41.2406 99.3195 41.2432 99.3622 41.2428C99.4295 41.2422 99.5519 41.241 99.7744 41.2389C99.8471 41.2387 99.9095 41.2386 99.9632 41.2385C100.13 41.2381 100.535 41.1172 100.684 41.0429C100.791 40.9895 100.824 41.0668 100.898 41.1604C101.032 41.3274 101.257 41.6088 101.511 41.9266C101.913 42.4296 101.525 43.1533 100.65 43.5476C100.625 43.559 100.599 43.569 100.572 43.5734C100.497 43.5855 100.295 43.6056 99.775 43.6048C99.3443 43.6021 98.6985 43.5728 98.2693 43.5372C98.0266 43.517 97.8695 43.5042 97.863 43.5042C97.8511 43.5042 97.8338 43.5037 97.8242 43.5031C97.8178 43.5027 97.5163 43.4879 97.0761 43.4664C96.5915 43.4427 96.1062 43.4309 95.6211 43.4309C93.5444 43.4309 91.2545 43.7665 91.0469 43.7976C91.0357 43.7993 91.026 43.8008 91.0147 43.8024C90.0487 43.9437 89.1517 43.5461 89.0171 42.9135C88.8817 42.2779 89.5667 41.6358 90.5395 41.4867ZM90.5395 41.4867V41.4867ZM100.36 33.5456C100.353 33.5478 97.7062 34.368 95.3989 34.7132C95.3752 34.7168 93.9054 34.8974 93.8816 34.8996C93.1747 34.9651 92.3795 35.0329 91.8363 35.0732C91.794 35.0763 91.7166 35.0852 91.6747 35.0919C91.6084 35.1025 91.4875 35.1218 91.2668 35.157C91.2031 35.1666 91.1473 35.1751 91.0984 35.1825C90.9351 35.2074 90.5196 35.3994 90.3846 35.4941C90.2952 35.5568 90.2613 35.4876 90.1808 35.4134C90.0253 35.2698 89.7534 35.0187 89.4456 34.734C88.9722 34.296 89.2454 33.5232 90.0509 33.0038C90.0742 32.9888 90.0984 32.9751 90.1249 32.9667C90.1968 32.9437 90.3939 32.8939 90.9076 32.8178C91.333 32.7569 91.9777 32.6902 92.4066 32.6619C92.6496 32.6459 92.8069 32.6353 92.8133 32.6343C92.8251 32.6326 92.8423 32.6306 92.8518 32.6298C92.8582 32.6292 93.1586 32.5992 93.5971 32.5554C93.62 32.5531 95.0183 32.3785 95.0411 32.3751C97.0943 32.0679 99.3074 31.3973 99.508 31.3358C99.5189 31.3325 99.5283 31.3295 99.5392 31.3262C100.473 31.0437 101.42 31.3041 101.649 31.9096C101.879 32.518 101.299 33.2542 100.36 33.5456ZM100.36 33.5456V33.5456ZM96.8438 62.5209L96.8428 62.5199M88.0492 70.3157L88.0486 70.3148M110.368 31.0611H109.616C109.013 31.0611 108.417 31.1946 107.872 31.452L107.54 31.6089C107.12 31.807 106.759 32.1102 106.492 32.4892C106.172 32.9426 106 33.484 106 34.039L106 79.2557C106 79.7025 106.109 80.1425 106.318 80.5374L106.331 80.5609C106.693 81.2442 107.332 81.738 108.084 81.9156C108.489 82.0113 108.911 82.0113 109.316 81.9156C110.068 81.738 110.707 81.2442 111.069 80.5609L111.082 80.5374C111.291 80.1425 111.4 79.7025 111.4 79.2557V61.3157C111.4 60.4309 111.652 59.5645 112.126 58.8177L112.334 58.4907C112.607 58.0609 112.982 57.7048 113.425 57.4537C114.398 56.902 115 55.8695 115 54.7505V39.9861L114.758 38.1543C114.62 37.1116 114.374 36.0861 114.024 35.0943L113.848 34.5974C113.716 34.2237 113.557 33.8602 113.372 33.51L113.045 32.893C112.85 32.5242 112.595 32.1899 112.292 31.9034L112.15 31.7698C111.951 31.5818 111.724 31.4265 111.476 31.3096C111.13 31.146 110.751 31.0611 110.368 31.0611ZM12 33.2064L12 47.7651C12 48.4533 11.8153 49.1289 11.4653 49.7214L11.1819 50.2011C10.9478 50.5973 10.5928 50.9081 10.1692 51.0878C9.37375 51.4252 8.85715 52.2056 8.85715 53.0696L8.85715 78.9152C8.85715 79.5908 8.56725 80.234 8.06102 80.6814C7.1695 81.4693 5.83052 81.4693 4.939 80.6814C4.43277 80.234 4.14286 79.5908 4.14286 78.9152L4.14287 53.0696C4.14287 52.2056 3.62627 51.4252 2.83084 51.0878C2.40718 50.9081 2.05226 50.5973 1.81816 50.2011L1.53473 49.7214C1.18467 49.1289 1.00001 48.4533 1.00001 47.7651L1.00001 32.9504C1.00001 32.6596 1.16067 32.3925 1.41761 32.2563C1.64784 32.1342 1.92361 32.1342 2.15383 32.2563C2.41078 32.3925 2.57144 32.6596 2.57144 32.9504L2.57144 44.505C2.57144 44.7959 2.7321 45.0629 2.98904 45.1992C3.21926 45.3213 3.49504 45.3213 3.72526 45.1992C3.98221 45.0629 4.14287 44.7959 4.14287 44.505L4.14287 32.9504C4.14287 32.6596 4.30353 32.3925 4.56047 32.2563C4.79069 32.1342 5.06647 32.1342 5.29669 32.2563C5.55364 32.3925 5.7143 32.6596 5.7143 32.9504L5.7143 44.505C5.7143 44.7959 5.87495 45.0629 6.1319 45.1992C6.36212 45.3213 6.6379 45.3213 6.86812 45.1992C7.12507 45.0629 7.28573 44.7959 7.28573 44.505L7.28573 32.9504C7.28573 32.6596 7.44639 32.3925 7.70333 32.2563C7.93355 32.1342 8.20933 32.1342 8.43955 32.2563C8.6965 32.3925 8.85716 32.6596 8.85716 32.9504L8.85715 44.505C8.85715 44.7959 9.01781 45.0629 9.27476 45.1992C9.50498 45.3213 9.78076 45.3213 10.011 45.1992C10.2679 45.0629 10.4286 44.7959 10.4286 44.505L10.4286 33.2064C10.4286 33.006 10.5052 32.8132 10.6426 32.6674C10.9528 32.3385 11.4758 32.3385 11.786 32.6674C11.9234 32.8132 12 33.006 12 33.2064ZM60.5473 74.1289C60.5444 75.6776 60.3839 77.2221 60.3851 78.6152C60.383 79.8583 60.4869 80.3237 60.5096 80.4103C60.5124 80.421 60.5156 80.4311 60.5189 80.4416C60.8048 81.368 60.5715 82.3736 59.9973 82.6806C59.4204 82.9889 58.7136 82.4799 58.4262 81.5479L58.4248 81.5435C58.4081 81.4884 58.0023 80.1372 58 78.6152C58.0012 77.0559 58.1617 75.5096 58.1605 74.1289C58.1605 74.0782 58.0859 72.8073 58.08 72.757C58.0542 72.539 58.0344 72.3711 58.0242 72.2853C58.02 72.2495 58.0441 72.217 58.0796 72.2106C58.2378 72.1823 58.6771 72.104 59.1914 72.0137C59.6295 71.9368 60.0504 72.1889 60.3071 72.6243C60.4572 72.8789 60.5469 73.8334 60.5473 74.1289ZM51.8053 70.2075C51.48 70.352 51.1966 70.5133 51.012 70.6511C50.8174 70.7963 50.7899 70.8763 50.7903 71.1191C50.7914 71.7766 50.4348 72.5665 50.3207 73.2141C50.2505 73.6126 50.2349 74.1161 50.0055 74.8837C49.6099 76.2442 49.407 77.1473 49.3837 77.2523C49.3822 77.2592 49.3807 77.2661 49.3792 77.273C49.1759 78.2224 49.5402 79.0414 50.1916 79.0962C50.8385 79.1506 51.5367 78.4312 51.7549 77.4928C51.7596 77.4726 51.7639 77.4527 51.7687 77.4325C51.7977 77.3095 51.9259 76.7889 52.2963 75.5454C52.7222 74.0718 53.2696 72.3213 53.1738 71.211C53.1724 70.9149 53.137 70.4978 52.9111 70.3063C52.6399 70.0763 52.2189 70.0238 51.8053 70.2075ZM31.6836 26.8022C31.6451 26.4752 31.5765 26.1753 31.4986 25.9629C31.4086 25.7173 31.3397 25.6688 31.0968 25.5714C30.3986 25.2915 29.672 24.6339 29.0165 24.2648C28.6339 24.0495 28.1324 23.8238 27.448 23.3339C26.1583 22.4231 25.2862 21.8732 25.2011 21.8197C25.1962 21.8166 25.1918 21.8139 25.1868 21.8108C24.2711 21.2418 23.297 21.2068 23.0189 21.7338C22.7422 22.2581 23.2544 23.1505 24.1575 23.7257C24.172 23.7349 24.1865 23.744 24.2009 23.7532C24.3048 23.8199 24.7969 24.1411 25.9848 24.9898C27.3674 25.9637 28.9959 27.1554 30.1791 27.5378C30.4947 27.6633 30.9221 27.8202 31.2325 27.6823C31.5469 27.5426 31.7323 27.2161 31.6836 26.8022ZM36.5206 62.9762C36.5878 62.8662 36.9554 62.4865 37.0764 62.4419C37.5648 62.2619 38.0701 62.4312 38.3044 62.9C38.4851 63.2611 38.6171 63.5981 38.6696 63.8143C38.7083 63.9731 38.6211 64.1224 38.5269 64.2559C38.4798 64.3252 38.3272 64.542 38.2783 64.6101C37.9216 65.1061 37.309 65.9846 36.8231 66.6992L32.8374 72.5586C32.2868 73.3675 31.3914 73.7318 30.8473 73.3687C30.3026 73.0056 30.308 72.0465 30.8586 71.2376L34.904 65.2901C35.454 64.4812 35.9193 63.7976 35.9378 63.771C35.9557 63.7438 35.9897 63.7036 36.013 63.6811C36.0179 63.6763 36.0273 63.6657 36.0403 63.6504C36.1937 63.4691 36.3935 63.1769 36.5206 62.9762ZM29.6381 49.6656C30.1252 50.0929 29.8202 50.7983 28.9605 51.2408C28.9451 51.2488 28.9302 51.2562 28.9147 51.2638C28.7278 51.3552 27.3943 51.9898 25.6942 52.336C23.9606 52.6396 22.8676 52.8921 22.7713 52.9145C22.7662 52.9157 22.7618 52.9167 22.7567 52.9179C21.801 53.1398 20.8177 52.8329 20.5684 52.2331C20.3207 51.6372 20.8868 50.9657 21.8284 50.7315C21.8454 50.7273 21.8617 50.7235 21.8787 50.7194C22.0905 50.6695 23.6344 50.3084 25.2694 50.008C26.3062 49.8485 26.7723 49.7611 26.9796 49.7165C27.0889 49.693 27.1915 49.6495 27.2943 49.6055C28.1487 49.2402 29.1744 49.2596 29.6381 49.6656ZM27.4284 43.0428C28.1771 42.8673 28.4173 42.7738 28.4859 42.7418C28.5028 42.7339 28.5184 42.7234 28.5335 42.7126C29.3186 42.1502 29.5442 41.372 29.0331 40.9738C28.6957 40.7109 28.3112 40.5454 28.0164 40.5154C27.7615 40.4894 27.7946 40.5567 27.5433 40.6067C27.3089 40.6534 26.7909 40.7153 26.552 40.7065C25.3148 40.6613 24.0588 41.0459 22.6182 41.0814C21.1425 41.1246 20.2167 41.2098 20.0858 41.2224C20.0746 41.2234 20.064 41.2245 20.0529 41.2257C19.0824 41.329 18.4097 41.9253 18.555 42.5556C18.7011 43.1891 19.6229 43.6531 20.6042 43.5876L20.6068 43.5874C20.6459 43.5848 22.1777 43.4822 24.3041 43.3905C25.3929 43.3379 26.4649 43.2528 27.4284 43.0428ZM27.6095 35.1032C25.4083 35.262 22.8438 34.2854 21.1012 33.4519C19.7033 32.7832 17.3057 31.79 18.1187 30.4708C18.2033 30.3334 18.3274 30.2254 18.4795 30.1477C19.6118 29.5692 20.8374 30.672 21.9582 31.2725C23.4891 32.0928 25.764 33.0936 27.3261 32.807C27.5171 32.772 27.9017 32.7379 28.0959 32.7379C28.2571 32.7379 28.2263 32.7051 28.3868 32.7213C28.7902 32.7621 29.2134 33.1258 29.4033 33.6326C29.5563 34.0406 29.3973 34.472 29.0356 34.7724C28.9516 34.8422 27.7187 35.1032 27.6095 35.1032ZM51.3074 17.1805C53.3131 16.3503 55.28 16.0499 57.3214 16.0482C59.8043 16.047 62.3928 16.5065 65.1544 17.0108C69.8434 17.8523 75.3336 20.6203 78.6058 23.9565C82.3379 27.7167 84.9974 33.7363 84.9801 38.9624C84.9813 42.8436 83.9659 48.4217 83.9553 48.4798L83.9547 48.483C83.7797 49.4391 83.307 50.9406 82.9017 51.8295C82.898 51.8375 82.8945 51.8451 82.8908 51.8532C82.7815 52.0898 81.0407 55.8273 79.0132 58.3808C76.9964 60.9463 73.8925 62.5579 73.6699 62.6715C73.6606 62.6762 73.6525 62.6802 73.6432 62.6849C72.7713 63.124 72.1005 63.7041 72.1491 63.9764C72.1979 64.2499 71.4934 64.7642 70.5815 65.1206C70.5754 65.123 70.5702 65.125 70.5641 65.1274C70.4228 65.1816 68.4805 65.9172 66.2616 66.2246C64.559 66.4582 62.8253 66.5818 61.0905 66.5806C56.624 66.5818 52.1629 65.7628 48.2005 63.9096C43.2884 61.6313 38.6495 56.7316 36.6462 51.7538C35.978 50.1177 35.2126 48.7133 34.702 47.258C33.9073 45.0098 33.5637 42.5316 33.5649 40.0439C33.5637 38.4545 33.7033 36.8638 33.9485 35.3299C34.6662 30.827 36.7017 26.4998 40.2214 23.639C43.5115 20.9597 47.3283 18.8327 51.3074 17.1805ZM68.9757 10.3948C69.2776 9.09389 69.3003 7.67117 69.3026 6.29576C69.3026 5.84104 69.2991 5.39281 69.2991 4.95819C69.2858 3.48922 69.3157 3.2855 69.3175 3.27461L69.3177 3.27361C69.4994 2.31523 69.1558 1.31916 68.5534 1.06198C67.9562 0.80587 67.3197 1.36704 67.1307 2.31025C67.1274 2.32708 67.1242 2.34381 67.1212 2.36071C67.0915 2.52817 66.9259 3.52354 66.9134 4.95819C66.9134 5.40346 66.917 5.85168 66.917 6.29576C66.9194 7.62682 66.8752 8.92182 66.6521 9.85669C66.5745 10.173 66.0345 11.3761 66.0064 11.7005C65.9829 11.972 66.0233 12.2602 66.1355 12.5176C66.3927 13.1076 67.1772 13.057 67.8886 12.4097C67.9046 12.3951 67.9202 12.3805 67.9354 12.3652C68.0653 12.2348 68.7148 11.5375 68.9757 10.3948ZM76.5223 14.3398C76.4356 14.5579 76.3527 14.7665 76.2767 14.9575C76.0323 15.5719 75.4174 15.9568 74.7607 15.8799C74.1086 15.803 73.7907 14.9683 74.1504 14.0607L76.5503 8.99641C77.2129 7.59819 78.2942 5.22491 79.5183 6.17127C80.7768 7.14385 79.0964 9.07772 78.3975 10.5064L76.5223 14.3398ZM75.5315 68.0788C74.9373 68.3561 74.8239 69.2904 75.2797 70.1555L78.4499 76.1752C78.9271 77.0279 79.7904 77.4731 80.3678 77.1645C80.9453 76.8558 81.027 75.9044 80.5498 75.0511L77.4387 69.1473C76.9835 68.2816 76.125 67.8009 75.5315 68.0788ZM29.5804 12.7252C29.0626 13.1276 29.1596 14.0637 29.7961 14.806L34.2239 19.9713C34.8786 20.6967 35.8192 20.9391 36.3137 20.5099C36.8082 20.0807 36.6766 19.1349 36.0218 18.4089L31.6773 13.3435C31.0412 12.6005 30.0974 12.3224 29.5804 12.7252ZM97.259 51.5135C97.1954 51.5176 96.3928 51.3415 95.4615 51.12C95.421 51.1104 95.381 51.1008 95.341 51.0891C95.1488 51.0328 94.4826 50.8146 93.2047 50.17C91.7259 49.4407 90.6807 48.8936 90.5649 48.8328C90.5575 48.8289 90.5504 48.8252 90.543 48.8213C89.677 48.3704 88.7526 48.4826 88.4847 49.0731C88.2169 49.6622 88.6993 50.516 89.5562 50.9772C89.568 50.9835 89.5793 50.9894 89.5912 50.9957C89.7238 51.0654 90.6226 51.536 92.1417 52.287C93.7044 53.0402 95.2439 53.0345 96.6651 53.7232C96.8714 53.8231 97.1862 53.8847 97.4154 53.8857C97.4984 53.8861 97.4945 53.8848 97.565 53.841C97.8185 53.6837 97.9062 53.1804 97.756 52.6293C97.5847 52.0014 97.324 51.5094 97.259 51.5135ZM53.0144 10.2806C52.9658 10.2393 52.5106 9.55531 51.9943 8.74925C51.9718 8.71419 51.9497 8.67946 51.929 8.6433C51.8297 8.46934 51.5019 7.84967 51.03 6.49853C50.4723 4.94678 50.1002 3.82732 50.0591 3.70313C50.0564 3.69519 50.0539 3.68759 50.0513 3.67966C49.7412 2.75387 48.9981 2.19265 48.3953 2.43156C47.7936 2.66945 47.5478 3.61884 47.8442 4.54574C47.8482 4.5585 47.8522 4.57059 47.8564 4.58331C47.9035 4.72557 48.2234 5.68834 48.795 7.2836C49.3964 8.91082 50.5082 9.97574 51.0527 11.4582C51.1317 11.6734 51.3155 11.9363 51.4797 12.0962C51.5391 12.1541 51.5372 12.1504 51.6183 12.1679C51.91 12.2307 52.3226 11.9295 52.5972 11.4286C52.9101 10.8578 53.0641 10.3228 53.0144 10.2806ZM85.4619 56.9731C84.5859 58.145 86.9951 59.0596 88.2251 59.8518L93.466 63.227C94.3323 63.6905 95.446 63.7213 95.9418 63.295C96.4375 62.8686 96.1399 62.1312 95.2802 61.6564L89.9203 58.1146C88.5211 57.19 86.467 55.6306 85.4619 56.9731ZM-nan -nanL-nan -nanL-nan -nanZM-nan -nanL-nan -nanL-nan -nanZ" stroke="black"/>
</svg>
