<svg width="110" height="109" viewBox="0 0 110 109" fill="none" xmlns="http://www.w3.org/2000/svg">
<path d="M54.0214 12.5855L54.0405 12.5867L54.0597 12.5871C64.9459 12.8166 75.3119 16.2589 82.9428 23.131C90.5545 29.9857 95.5319 40.3299 95.5319 54.5561C95.5319 78.675 77.1409 94.6746 54.0412 96.525C31.2427 96.5034 14.4396 77.875 12.6267 54.4789C11.8047 43.8708 16.3927 33.0481 24.1147 25.0335C31.8326 17.0233 42.5969 11.9053 54.0214 12.5855Z" stroke="black" stroke-width="2"/>
<path d="M18.9513 31.525L18.3457 30.4738C17.1774 28.4455 16.7945 26.0588 17.2698 23.7669L17.3182 23.5333C17.4388 22.952 17.6275 22.387 17.8806 21.85L18.0624 21.4643C19.1958 19.0595 21.6154 17.525 24.2739 17.525V17.525H25.7514C27.9076 17.525 29.9799 18.3615 31.5319 19.8583V19.8583" stroke="black" stroke-width="2" stroke-linecap="round"/>
<path d="M13.2353 61.9874L9.46721 61.0401C8.74583 60.8588 8.05511 60.5721 7.41729 60.1895L7.17418 60.0436C5.04397 58.7655 3.74056 56.4634 3.74056 53.9792V53.9792C3.74057 52.6551 4.11226 51.3577 4.81333 50.2344L5.30094 49.4532C5.82665 48.611 6.56534 47.9224 7.44237 47.457L8.09024 47.1133C9.50395 46.3631 11.2136 46.4402 12.554 47.3145V47.3145" stroke="black" stroke-width="2" stroke-linecap="round"/>
<path d="M30.181 89.0625V89.0625C27.2325 91.0843 23.5099 91.6156 20.1135 90.4994L19.9759 90.4541L19.6632 90.3499C17.3013 89.5626 15.5975 87.4943 15.2769 85.0254V85.0254C15.1444 84.005 15.2563 82.9678 15.6033 81.9991L15.7391 81.6201C16.3789 79.8343 17.6206 78.327 19.251 77.3572L19.3213 77.3153" stroke="black" stroke-width="2" stroke-linecap="round"/>
<path d="M90.2739 30.525L90.8197 29.5097C91.9271 27.45 92.2892 25.071 91.8448 22.7751L91.7849 22.4653C91.6811 21.929 91.5177 21.406 91.2977 20.9059L91.0072 20.2455C90.0127 17.9846 87.7761 16.525 85.3061 16.525V16.525H84.037C81.9617 16.525 79.9752 17.367 78.5319 18.8583V18.8583" stroke="black" stroke-width="2" stroke-linecap="round"/>
<path d="M96.2966 61.0597L100.065 60.1124C100.786 59.9311 101.477 59.6444 102.115 59.2617L102.358 59.1159C104.488 57.8377 105.791 55.5357 105.791 53.0514V53.0514C105.791 51.7274 105.42 50.4299 104.719 49.3067L104.469 48.9076C103.788 47.8151 102.829 46.9219 101.692 46.3182V46.3182C100.058 45.4515 98.1575 45.2353 96.3713 45.713L95.5863 45.9229" stroke="black" stroke-width="2" stroke-linecap="round"/>
<path d="M79.3509 88.1348V88.1348C82.2994 90.1566 86.0221 90.6878 89.4184 89.5716L89.556 89.5264L89.8688 89.4221C92.2306 88.6349 93.9345 86.5666 94.255 84.0977V84.0977C94.3875 83.0773 94.2756 82.04 93.9286 81.0714L93.7928 80.6924C93.1531 78.9065 91.9113 77.3992 90.281 76.4294L90.2106 76.3876" stroke="black" stroke-width="2" stroke-linecap="round"/>
<path d="M47.3441 96.4844V96.4844C46.9244 99.0976 48.017 101.724 50.1664 103.268L50.2274 103.312C50.7763 103.706 51.3787 104.02 52.0164 104.244L52.7735 104.511C54.6643 105.176 56.7451 105.038 58.5315 104.129L58.6934 104.047C59.5862 103.592 60.363 102.939 60.9638 102.138V102.138C62.3044 100.35 62.6407 98.0014 61.856 95.9088L61.724 95.5567" stroke="black" stroke-width="2" stroke-linecap="round"/>
<path d="M45.4886 13.2444L45.4014 12.3674C45.1359 9.69747 46.3146 7.08863 48.4936 5.52308V5.52308C49.0736 5.10635 49.7101 4.77446 50.3839 4.53744L51.0865 4.29024C52.9774 3.62505 55.0581 3.76302 56.8446 4.67205L57.0065 4.75443C57.8993 5.20873 58.676 5.86175 59.2769 6.66326V6.66326C60.6174 8.45143 60.9538 10.7997 60.1691 12.8923L60.037 13.2444" stroke="black" stroke-width="2" stroke-linecap="round"/>
<g clip-path="url(#clip0_5_5)">
<path d="M41.4058 50.2272H41.4048V50.2282H41.4058V50.2272Z" fill="black"/>
<path d="M69.5846 29.4348V29.4348C69.5886 29.2927 69.7154 28.4358 69.8543 28.4661C70.1115 28.5222 70.5291 28.7937 71.0328 29.2592C71.0328 29.2592 71.0328 29.2592 71.0328 29.2592C71.0329 29.2593 74.5385 32.4992 76.7092 36.1243C77.1309 36.8193 77.2708 37.0509 77.3171 37.1279C77.3323 37.1532 77.3469 37.1789 77.3603 37.2053C77.9366 38.3404 77.6492 39.9625 76.7112 40.8335C76.7104 40.8342 76.7098 40.8348 76.709 40.8355C76.6839 40.8587 76.1982 41.3074 74.9805 42.35C73.5137 43.6828 73.3095 43.8116 73.2894 43.8226C73.2882 43.8233 73.2868 43.8238 73.2855 43.8243C72.075 44.3032 71.0344 44.6928 70.9734 44.6896C70.9124 44.6858 70.182 45.0252 69.5664 45.6303C69.1354 46.0529 69.129 46.6582 69.4802 47.1862C69.6259 47.4051 70.7635 47.8037 71.0265 47.8037V47.8037C71.0455 47.8037 71.0653 47.8037 71.0843 47.8029C73.4808 47.7105 75.2879 46.1546 77.0744 44.6811C77.8635 43.9937 78.0461 43.834 78.088 43.7972C78.0963 43.7899 78.1046 43.7823 78.1127 43.7748C79.0583 42.9073 80.2056 43.1691 80.6682 44.3603C80.6686 44.3613 80.6685 44.3612 80.6689 44.3622C80.6813 44.3943 81.6322 46.8573 81.995 48.5874C82.6098 51.5057 83.0083 54.4512 83.0059 57.3284V57.3284C83.0059 57.3359 82.8247 57.739 82.8174 57.741C82.4597 57.8376 81.6329 57.7607 80.6823 57.5202L73.0815 55.4268C71.8013 55.1658 70.4133 54.6175 69.9958 54.2081C69.6134 53.8325 69.2933 53.5185 69.2441 53.4704C69.2412 53.4675 69.2381 53.4638 69.2421 53.4629V53.4629C69.2468 53.4619 69.2523 53.463 69.248 53.4651C69.2293 53.4744 69.1807 53.4985 69.0546 53.5611V53.5611C68.9906 53.592 68.7494 53.7361 68.6921 53.7782C68.3008 54.0653 67.9278 54.3583 67.8171 54.4668C67.6896 54.591 67.585 54.8264 67.585 54.988C67.585 55.1503 67.3204 54.2671 66.9964 53.0259L65.1837 47.6942C64.6292 46.5337 64.1681 45.5728 64.1586 45.5581C64.1491 45.5433 64.1356 45.5239 64.1269 45.5122C64.119 45.5014 63.7276 45.0609 63.257 44.532C62.7872 44.0038 61.728 43.0926 62.0829 43.2254C62.4361 43.359 63.2493 42.5549 63.8894 41.4377C63.8898 41.437 63.8897 41.4371 63.8902 41.4363C63.9044 41.4116 65.0098 39.4853 66.5345 37.0851C68.0469 34.6337 69.5434 32.1239 69.5846 29.4348ZM47.5589 25.4244C49.5545 25.2014 51.8393 25.0204 54.1542 25.0204C54.1653 25.0204 54.1748 25.0204 54.1859 25.0204C58.2224 25.008 62.323 25.6022 65.0554 27.2645C66.1812 27.9978 66.3673 28.5081 66.4157 29.4348C66.4584 30.8283 65.3271 33.1415 63.8401 35.4508C62.404 37.7445 60.9996 40.1817 60.9976 40.1852C60.9975 40.1853 60.9975 40.1852 60.9975 40.1854C60.3542 41.3014 58.7874 41.9755 57.5152 41.6836C57.515 41.6836 57.515 41.6836 57.5148 41.6836C57.5088 41.6822 57.0163 41.5711 55.684 41.5997C55.5453 41.6001 55.4868 41.6003 55.4621 41.6004C55.4522 41.6004 55.4357 41.6007 55.4258 41.601C55.2211 41.6061 55.0491 41.5946 54.9907 41.5738C54.9894 41.5733 54.9694 41.5296 54.9694 41.5282V41.5282C54.9631 38.9662 54.3224 36.3007 54.319 36.2867C54.3189 36.2862 54.319 36.2864 54.3189 36.286C54.0187 35.0388 53.8294 34.0045 53.8991 33.9874C53.9681 33.9703 53.9585 33.2479 53.7201 32.4261C53.546 31.8263 53.3952 31.306 53.3264 31.0686C53.3042 30.992 53.2254 30.947 53.1481 30.9666V30.9666C53.072 30.9868 52.8233 30.819 52.7441 30.5627C52.6648 30.3063 52.1728 28.6984 51.8171 27.5364C51.4614 26.3736 50.7896 26.3433 50.3238 27.4672C49.9715 28.3187 49.5623 29.3628 49.2875 30.1057C49.1538 30.4673 49.0697 30.9671 49.0673 31.3526V31.3526C49.0554 32.0533 49.3168 32.8992 49.9728 33.4693V33.4693C50.0671 33.5514 50.1654 33.6328 50.2259 33.7421C50.4245 34.1007 50.7445 35.0247 51.0128 36.0418C51.0129 36.0424 51.0129 36.0422 51.013 36.0428C51.018 36.0616 51.8084 39.0705 51.8005 41.5282V41.5282C51.8005 41.5315 51.7608 41.6453 51.7581 41.647C51.7089 41.677 51.6204 41.7034 51.5092 41.7217C51.5042 41.7225 50.9532 41.7473 50.9481 41.7473V41.7473C49.5821 41.7495 49.1067 41.7976 49.0655 41.8021C49.0633 41.8023 49.0614 41.8025 49.0592 41.8028C47.7629 41.9555 46.6438 41.9639 46.5717 41.8211C46.4989 41.6774 45.8579 40.7895 45.3113 40.1293C44.7646 39.469 44.0358 38.3124 44.0231 38.2876C44.0096 38.2627 43.9875 38.2246 43.9732 38.2044C43.9582 38.1835 43.3753 37.2804 42.6759 36.1979C42.6757 36.1975 42.6757 36.1976 42.6755 36.1972C42.6672 36.1844 41.1648 33.8598 39.4749 32.089C38.5937 31.1631 38.2791 30.9424 38.277 30.9409C38.277 30.9409 38.277 30.9409 38.2769 30.9409C37.2124 30.1976 37.2907 29.1072 38.4517 28.5176C38.452 28.5175 38.4519 28.5176 38.4521 28.5174C38.4605 28.5132 43.7489 25.8287 47.5589 25.4244ZM23.5898 53.0329C23.5937 48.4088 24.4977 43.9051 27.0479 39.2476C28.5855 36.4195 31.8438 33.2629 31.8441 33.2627C31.8441 33.2627 31.8441 33.2627 31.8441 33.2627C32.7736 32.3622 34.447 32.1685 35.5648 32.8312C35.5661 32.832 35.5674 32.8327 35.5687 32.8335C35.607 32.8567 36.212 33.2305 37.1663 34.2165C38.5279 35.6291 39.9827 37.8567 39.9867 37.8627C39.9868 37.8628 39.9867 37.8628 39.9869 37.8629C40.5294 38.6938 41.3032 39.8404 41.9209 40.7316C42.2056 41.1424 42.6586 41.7416 42.971 42.1318V42.1318C42.9753 42.1369 42.9794 42.142 42.9836 42.147C43.1432 42.342 43.3789 42.5998 43.4289 42.8468C43.4396 42.9 43.4414 42.9479 43.4338 42.9882C43.4159 43.0827 43.296 43.1297 43.2095 43.1718V43.1718C40.8525 44.2939 39.3229 47.467 39.322 47.4689C39.322 47.469 39.322 47.4689 39.3219 47.469C38.7635 48.6279 39.0043 49.7223 39.856 49.9017C40.7075 50.0811 41.8496 49.2736 42.3932 48.1088C42.3934 48.1084 42.3933 48.1085 42.3935 48.1081C42.3997 48.0949 43.0265 46.765 44.6236 45.9503C46.2382 45.151 48.4913 44.8466 50.9473 44.8512C52.7171 44.8512 54.3079 44.7036 55.6832 44.7052C58.2249 44.7654 59.6326 45.8345 59.6498 45.8477C59.6504 45.8481 59.6502 45.848 59.6508 45.8484C60.6794 46.6391 61.9437 48.2466 62.462 49.423C62.4623 49.4237 62.4621 49.4234 62.4624 49.4241C62.472 49.4458 64.6236 54.346 64.5927 57.6593C64.5927 58.2682 64.542 58.8283 64.4446 59.3107C63.6143 63.4019 59.9146 65.503 56.0326 65.5356C52.3004 65.489 48.9508 63.6108 48.1435 59.6944C48.054 59.2586 48.0025 58.7366 48.0025 58.1766C47.9954 56.6417 48.3939 54.8264 49.0871 53.5649C49.8199 52.2662 50.5947 51.7093 51.5018 51.7116C51.688 51.7116 51.8971 51.7341 52.1412 51.7955C53.0823 52.0417 53.5537 52.4604 53.9554 53.1338C54.342 53.8073 54.5519 54.7883 54.5488 55.8688C54.5566 57.4035 54.3475 58.0312 54.3452 58.0383C54.3451 58.0385 54.3451 58.0384 54.345 58.0387C53.9339 59.2549 53.5513 60.2956 53.4943 60.3523C53.438 60.4082 53.8952 60.9489 54.5123 61.554C55.1295 62.1591 55.7229 62.5661 55.8314 62.4581C55.9399 62.3509 56.0691 62.2235 56.1182 62.1746C56.1681 62.1257 56.2339 62.0348 56.2671 61.9711C56.3004 61.9074 56.6874 60.8698 57.1308 59.665C57.1312 59.6639 57.1313 59.6638 57.1317 59.6626C57.145 59.626 57.7091 58.0641 57.7177 55.8688C57.7138 54.4279 57.4689 52.9482 56.7258 51.6269C55.9962 50.3056 54.6668 49.1949 52.9136 48.7824C52.4438 48.6651 51.97 48.6038 51.5018 48.6045C49.0198 48.6061 47.2531 50.2816 46.2905 52.1054C45.5358 53.5101 45.3657 54.3842 45.3652 54.3867C45.3651 54.3868 45.3652 54.3868 45.3651 54.3869C45.1211 55.6459 44.405 56.2323 43.7736 55.6909C43.7002 55.6281 43.6284 55.5666 43.5587 55.5069C42.9996 55.0278 42.3731 54.8535 41.7391 55.2278V55.2278C41.5335 55.3492 41.1306 55.5331 40.8944 55.5677C40.6386 55.6051 40.1996 55.6693 39.4464 55.7795C36.7409 56.2362 32.8867 56.3566 29.198 56.5314C27.3145 56.627 26.1726 56.7188 26.156 56.7201C26.1555 56.7202 26.1555 56.7202 26.155 56.7202C24.8551 56.8252 23.7114 55.8698 23.6094 54.5973C23.609 54.5916 23.6086 54.586 23.6082 54.5802C23.6051 54.526 23.589 54.1915 23.5898 53.0329ZM79.3307 70.3353C77.0547 73.7412 72.7731 77.1611 72.7726 77.1615C72.7726 77.1615 72.7726 77.1615 72.7725 77.1615C72.0637 77.7277 71.1113 77.8891 70.3185 77.6501C70.0027 77.5549 68.9142 76.5982 68.6854 76.3606V76.3606C66.9886 74.6232 66.341 73.5541 66.3396 73.5518C66.3396 73.5518 66.3396 73.5518 66.3396 73.5517C65.6725 72.4496 64.4509 71.7692 63.6238 72.0395C62.797 72.3097 62.6677 73.4314 63.3364 74.5325C63.3368 74.5333 63.3367 74.5331 63.3372 74.5339C63.3516 74.5577 64.6274 76.6531 66.3848 78.4959V78.4959C66.6563 78.7768 67.2974 79.4633 67.2331 79.8487C67.1555 80.3142 66.675 80.7796 65.8912 81.0639C65.8912 81.0639 65.8912 81.0639 65.8912 81.0639C65.8908 81.0641 57.7271 84.0257 52.1459 84.028C51.9095 84.028 51.7724 84.028 51.693 84.028C51.6198 84.028 51.5459 84.0301 51.4749 84.0121C50.9272 83.8733 50.6348 82.8727 50.8178 81.6872C50.8191 81.6793 50.8204 81.6714 50.8221 81.6636C50.8336 81.6101 50.8985 81.3245 51.2546 79.8933C51.4638 79.0303 51.6729 78.1767 51.8377 77.4419V77.4419C51.8387 77.4375 52.0867 76.1139 52.0875 76.1094C52.2113 75.3967 52.403 74.3739 52.584 73.4703C52.584 73.4703 52.584 73.4703 52.584 73.4703C52.5841 73.4701 52.619 73.2965 52.8581 71.8492C52.9841 71.0879 53.0966 70.3648 53.179 69.8009C53.2066 69.5964 53.225 69.4604 53.2372 69.3701C53.2533 69.2506 53.2805 69.1255 53.2346 69.014C53.1232 68.7436 52.6977 68.544 52.1744 68.544C51.5414 68.544 50.8292 68.5301 50.5908 68.5137C50.3924 68.5002 50.2242 68.4898 50.1728 68.4881C50.165 68.4878 50.1562 68.4966 50.1558 68.5044V68.5044C50.1179 69.0255 49.4302 72.849 49.4278 72.8628C49.4277 72.8632 49.4277 72.8631 49.4276 72.8635C49.2003 74.1255 49.0039 75.1986 48.9912 75.2491C48.9778 75.2996 48.9675 75.3842 48.9675 75.437C48.9675 75.4399 48.9674 75.4434 48.9672 75.4477C48.9632 75.5432 48.7635 76.6862 48.7417 76.7793V76.7793C48.5151 77.8007 48.1602 79.1865 47.8591 80.4938V80.4938C47.682 81.2874 47.6125 82.2247 47.0129 82.774C46.5154 83.2297 45.7601 83.4637 44.9638 83.3418C44.962 83.3415 44.9605 83.3413 44.9588 83.341C44.9269 83.3359 44.5631 83.2748 43.3077 82.9693C39.44 82.031 35.5224 80.4052 32.4042 78.078V78.078C32.1865 77.9158 31.8505 77.6241 31.8572 77.3526C31.8692 76.8675 32.2427 76.1305 32.8676 75.4448L41.5482 65.9318C42.3681 64.9344 42.9132 64.0109 42.7579 63.8811C42.6026 63.7514 42.4822 63.6396 42.4886 63.6341C42.4949 63.6287 42.769 63.6225 43.0986 63.6232C43.4281 63.624 43.4915 63.624 43.2412 63.624C43.2184 63.624 43.1976 63.6246 43.1788 63.6256C43.0046 63.6352 42.9776 63.5145 43.1476 63.4758V63.4758C43.1941 63.4652 43.2623 63.4847 43.308 63.4983C43.405 63.527 43.5755 63.5235 43.5935 63.1558C43.5982 62.9158 43.7221 62.6321 43.5018 62.3191C43.158 61.8328 42.7088 61.6821 42.4656 61.6223V61.6223C42.2889 61.5809 42.1091 61.5586 41.9276 61.5568C41.7676 61.5551 41.5962 61.554 41.4729 61.554C41.2725 61.554 41.0015 61.6759 40.8708 61.825C40.7409 61.9742 39.9621 62.9117 39.1398 63.9091L30.6716 73.2147C29.7995 74.1691 28.4999 74.0762 27.7804 73.0066C27.7801 73.006 27.7802 73.0062 27.7798 73.0057C27.7687 72.9891 26.6001 71.2418 26.0607 68.986C25.326 65.9152 24.6333 62.292 24.6323 62.2872C24.6323 62.2871 24.6323 62.2871 24.6323 62.287C24.3916 61.028 25.2614 59.9243 26.5653 59.8358C26.5654 59.8358 26.5654 59.8358 26.5654 59.8357C26.5668 59.8357 29.9735 59.6042 33.0522 59.4637C35.5248 59.3386 37.9308 59.1833 39.9803 58.8423C41.9705 58.4736 42.8382 57.9917 42.8395 57.9909C42.8396 57.9909 42.8395 57.9909 42.8396 57.9909C43.5922 57.5731 44.2401 57.3818 44.5812 57.4429C44.6262 57.451 44.8353 58.1301 44.8352 58.1758V58.1758C44.8352 58.9122 44.8977 59.6284 45.0356 60.3049C46.1574 65.8533 51.1414 68.6419 55.913 68.6419C55.9534 68.6419 55.9922 68.6419 56.0318 68.6411C61.034 68.6745 66.3618 65.7205 67.5517 59.9142C67.6983 59.1879 67.7609 58.4337 67.7609 57.6585V57.6585C67.7604 57.5873 67.7534 57.4873 67.8143 57.4505C67.8925 57.4033 68.0472 57.4016 68.2259 57.4557C68.4874 57.5358 69.7478 57.8193 71.0257 58.0873L80.4129 60.7446C81.6787 61.0646 82.467 62.3467 82.1662 63.594C82.1662 63.5943 82.1662 63.5942 82.1661 63.5945C82.1636 63.6048 81.2209 67.5015 79.3307 70.3353Z" stroke="black" stroke-width="2"/>
</g>
<defs>
<clipPath id="clip0_5_5">
<rect width="68" height="66" fill="white" transform="translate(19.5319 21.525)"/>
</clipPath>
</defs>
</svg>
