<svg width="102" height="89" viewBox="0 0 102 89" fill="none" xmlns="http://www.w3.org/2000/svg">
<path d="M63 4C63 4.09664 62.9381 4.36327 62.4143 4.7595C61.9069 5.14343 61.1093 5.53192 60.0341 5.876C57.8949 6.56052 54.8775 7 51.5 7C48.1225 7 45.1051 6.56052 42.9659 5.876C41.8907 5.53192 41.0931 5.14343 40.5857 4.7595C40.0619 4.36327 40 4.09664 40 4C40 3.90336 40.0619 3.63673 40.5857 3.2405C41.0931 2.85657 41.8907 2.46808 42.9659 2.124C45.1051 1.43948 48.1225 1 51.5 1C54.8775 1 57.8949 1.43948 60.0341 2.124C61.1093 2.46808 61.9069 2.85657 62.4143 3.2405C62.9381 3.63673 63 3.90336 63 4Z" stroke="black" stroke-width="2"/>
<path d="M42.6921 13.5101L42.7523 13.528L42.8143 13.5383L47.1908 14.2625C48.9085 14.5468 50.6467 14.6897 52.3878 14.6897H53.6621C55.4006 14.6897 57.1326 14.4779 58.8199 14.0591C60.3278 13.6848 61.7905 13.1475 63.1821 12.4566L64.8537 11.6267C66.0999 11.008 67.2543 10.222 68.2854 9.29127L100.525 32.0784C99.2851 33.4004 97.7668 34.4363 96.0755 35.108L95.4335 35.363C94.2972 35.8143 93.11 36.1247 91.8982 36.2873L72.6803 38.8658L52.7156 39.9986L29.891 38.8655L11.0063 36.2612C9.9349 36.1135 8.87923 35.8681 7.85245 35.5283L5.95272 34.8996L5.63851 35.8489L5.95272 34.8996C4.25197 34.3367 2.71975 33.3673 1.48598 32.0816L34.2812 9.28787C36.1204 10.9643 38.3163 12.2067 40.7071 12.9189L42.6921 13.5101Z" stroke="black" stroke-width="2" stroke-linecap="round"/>
<path d="M76.7106 44.7625L76.7226 44.7617L76.7346 44.7606C85.0158 44.0075 93.1683 42.2148 101 39.4255V77.7987C98.287 79.4892 95.4007 80.8841 92.3904 81.9595C90.1736 82.7515 87.8978 83.3674 85.5841 83.8013L79.9541 84.8573L70.7288 85.8827V66.0821C70.7288 63.3459 69.7503 60.6999 67.9699 58.6221L67.8768 58.5135C67.2557 57.7886 66.5381 57.1525 65.7439 56.6229C64.0307 55.4803 62.0175 54.8706 59.9582 54.8706H42.332C40.878 54.8706 39.4402 55.1758 38.1116 55.7665L37.3801 56.0917C35.4566 56.9469 33.9272 58.4972 33.0983 60.4321C32.6532 61.4709 32.4237 62.5893 32.4237 63.7194V85.8672L24.3638 84.8593L15.8073 83.1474L6.69651 80.2993L1 77.7091L1 39.4255C8.83168 42.2148 16.9842 44.0075 25.2654 44.7606L25.2766 44.7616L25.2879 44.7624L50.6438 46.4918L50.7111 46.4964L50.7784 46.4919L76.7106 44.7625Z" stroke="black" stroke-width="2"/>
<path d="M63 67.3913V86.9191L59.8491 87.2018C53.9615 87.7302 48.0385 87.7302 42.1509 87.2018L39 86.9191V67.8628C39 66.3399 39.5926 64.8768 40.6523 63.7831C41.7566 62.6433 43.2758 62 44.8628 62H57.6087C59.2119 62 60.7319 62.7135 61.7561 63.9468C62.56 64.9146 63 66.1332 63 67.3913Z" stroke="black" stroke-width="2"/>
</svg>
